<svg width="341" height="59" viewBox="0 0 341 59" fill="none" xmlns="http://www.w3.org/2000/svg">
<g clip-path="url(#clip0_515_2304)">
<path d="M50.58 6.13C54.03 4.03 57.55 2.02 61.05 0C61.69 0.31 62.6 0.64 62.49 1.52C62.54 20.15 62.54 38.78 62.51 57.4C58.51 57.36 54.51 57.36 50.52 57.4C50.48 40.89 50.52 24.38 50.51 7.87C50.51 7.29 50.54 6.71 50.59 6.13H50.58Z" fill="#ffffff"/>
<path d="M163.77 0.0700293C163.95 0.0700293 164.31 0.0400293 164.49 0.0300293C164.98 0.370029 165.56 0.780029 165.45 1.48003C165.49 11.55 165.49 21.61 165.47 31.68C165.62 31.66 165.9 31.63 166.05 31.61C170.88 27.26 175.9 23.11 180.67 18.69C183.06 21.5 185.37 24.37 187.79 27.14C184.37 29.86 181.07 32.72 177.6 35.38C177.93 36.49 178.67 37.4 179.25 38.39C182.12 43.1 184.98 47.81 187.83 52.53C188.84 54.14 189.7 55.86 190.88 57.36C186.34 57.37 181.8 57.39 177.27 57.35C174.62 52.36 171.65 47.55 169 42.55C167.77 43.4 166.5 44.29 165.5 45.41C165.47 49.4 165.48 53.4 165.47 57.4C161.48 57.35 157.49 57.37 153.49 57.4C153.43 40.43 153.54 23.45 153.44 6.47003C153.75 6.07003 154.06 5.64003 154.54 5.42003C157.63 3.65003 160.68 1.83003 163.76 0.0600293L163.77 0.0700293Z" fill="white"/>
<path d="M0 0.299998C7.77 0.289998 15.55 0.259998 23.33 0.309998C28.65 0.719998 34.38 1.84 38.33 5.72C41.52 8.64 42.66 13.2 42.4 17.38C42.13 21.23 39.37 24.19 36.76 26.74C39.94 28.84 42.76 31.72 44.08 35.35C45.78 40.29 45.04 46.12 41.83 50.29C39.2 53.63 35.16 55.47 31.13 56.49C29.12 56.93 27.11 57.48 25.04 57.48C16.7 57.48 8.35 57.48 0.01 57.48C0.04 38.43 0.02 19.37 0 0.299998ZM13.32 11C13.32 14.91 13.33 18.81 13.32 22.72C16.96 22.69 20.69 23.08 24.23 22.01C25.9 21.51 27.56 20.52 28.3 18.87C29.39 16.28 28.2 12.81 25.45 11.82C21.59 10.32 17.36 11.25 13.34 11H13.32ZM13.32 33.35C13.29 37.81 13.37 42.27 13.28 46.73C14.99 47.26 16.83 46.86 18.6 46.98C22.15 46.93 26.21 47.42 29.14 44.98C32.03 42.77 31.86 38.14 29.54 35.59C27.92 33.98 25.58 33.36 23.36 33.34C20.02 33.34 16.67 33.33 13.33 33.34L13.32 33.35Z" fill="white"/>
<path d="M85.69 18.94C92.3 18.04 99.68 19.03 104.77 23.69C109.03 27.4 110.87 33.2 110.69 38.72C110.86 44.21 108.71 49.86 104.43 53.4C98.41 58.44 89.79 59.2 82.4 57.28C78.08 56.02 74.09 53.33 71.85 49.38C70.68 47.44 70 45.27 69.54 43.07C69.17 40.19 69.18 37.27 69.53 34.39C70.4 29.68 72.97 25.23 76.96 22.5C79.54 20.64 82.6 19.53 85.7 18.94H85.69ZM88.39 28.77C85.01 29.44 82.58 32.4 81.93 35.69C81.52 39.11 81.67 42.98 84.09 45.67C86.34 48.48 90.61 48.95 93.73 47.44C96.83 45.81 98.29 42.12 98.2 38.75C98.31 35.36 97.08 31.58 94.07 29.73C92.39 28.61 90.31 28.63 88.38 28.77H88.39Z" fill="white"/>
<path d="M121.85 22.37C126.65 18.91 132.89 18.08 138.63 19.01C141.75 19.63 144.91 20.54 147.49 22.47C146.38 25.29 145.17 28.08 144.14 30.94C140.92 29.41 137.39 28.35 133.79 28.77C130.55 29.47 127.89 32.11 127.14 35.34C126.3 38.9 126.67 43.13 129.39 45.83C131.45 48.02 134.67 48.66 137.55 48.12C139.89 47.89 142.01 46.87 144.17 46.05C145.22 48.88 146.36 51.68 147.49 54.48C142.9 57.96 136.82 58.55 131.25 58.11C129.96 57.84 128.65 57.66 127.38 57.3C122.98 55.98 118.93 53.16 116.71 49.07C115.62 47.21 114.96 45.15 114.54 43.05C114.18 40.18 114.2 37.27 114.54 34.4C115.4 29.67 117.87 25.14 121.87 22.37H121.85Z" fill="white"/>
<path d="M198.8 23.5C203.69 19.13 210.7 17.95 217.01 19.02C220.09 19.65 223.26 20.49 225.78 22.46C224.78 25.34 223.56 28.16 222.36 30.97C219.26 29.3 215.69 28.34 212.16 28.82C207.97 29.57 205.07 33.77 205.11 37.9C204.86 40.96 205.83 44.23 208.22 46.26C210.46 48.33 213.77 48.61 216.64 48C218.71 47.72 220.58 46.77 222.51 46.03C223.6 48.8 224.56 51.64 225.88 54.3C222.79 57.05 218.45 57.93 214.43 58.19C208.34 58.59 201.75 56.92 197.46 52.35C193.43 48.17 192.11 42.01 192.69 36.37C193.06 31.54 195.06 26.7 198.79 23.5H198.8Z" fill="white"/>
<path d="M247.77 18.7C251.67 18.52 255.65 18.89 259.25 20.5C264.23 22.54 268.14 27.01 269.44 32.24C270.92 38.04 270.52 44.62 267.18 49.73C264.09 54.56 258.55 57.32 252.97 58.03C247.67 58.65 242.05 58.03 237.36 55.35C232.82 52.84 229.86 48.03 229.04 42.98C228.28 37.99 228.71 32.61 231.29 28.17C234.56 22.33 241.21 18.97 247.76 18.7H247.77ZM241.48 35.78C240.87 39.21 241.28 43.18 243.74 45.83C246.87 49.52 253.61 49 256.08 44.81C257.82 42.28 257.82 39.07 257.52 36.14C257.05 32.8 254.76 29.57 251.34 28.79C250.17 28.71 249 28.71 247.83 28.79C244.51 29.51 241.96 32.46 241.47 35.78H241.48Z" fill="white"/>
<path d="M308.3 24.6C312.07 20.49 317.78 18.41 323.32 18.69C327.4 18.56 331.57 19.92 334.62 22.68C338.09 25.77 339.85 30.37 340.39 34.9C340.9 37.19 340.48 39.59 340.63 41.92C332.56 41.92 324.48 41.89 316.41 41.92C317 44.75 319.16 47.23 322.01 47.94C327.11 49.3 332.53 48.08 337.08 45.58C338.07 48.47 339.48 51.2 340.37 54.12C334.72 57.82 327.75 58.85 321.12 58.07C316.38 57.37 311.58 55.62 308.23 52.06C304.7 48.46 303.16 43.26 303.34 38.3C303.24 33.34 304.89 28.26 308.29 24.58L308.3 24.6ZM318.13 30.6C316.97 31.77 316.48 33.39 316.23 34.98C320.52 34.98 324.81 34.98 329.1 34.98C328.72 32.64 327.5 30.23 325.26 29.18C322.91 28.13 319.86 28.64 318.13 30.61V30.6Z" fill="white"/>
<path d="M276.06 19.82C278.08 19.9 280.16 19.62 282.14 19.95C283.39 21.42 284.21 23.24 285.35 24.81C285.77 25.29 286.31 24.7 286.7 24.49C290.12 22.09 294.02 20.15 298.22 19.71C299.1 22.74 299.79 25.83 300.65 28.86C300.67 29.01 300.71 29.3 300.72 29.44C296.13 29.8 291.69 31.91 288.25 34.92C288.14 42.41 288.25 49.9 288.19 57.39C284.14 57.39 280.09 57.37 276.03 57.4C276.03 44.87 276.03 32.35 276.04 19.83L276.06 19.82Z" fill="white"/>
</g>
<defs>
<clipPath id="clip0_515_2304">
<rect width="340.65" height="58.33" fill="white"/>
</clipPath>
</defs>
</svg>
