<svg width="99" height="145" viewBox="0 0 99 145" fill="none" xmlns="http://www.w3.org/2000/svg">
<g clip-path="url(#clip0_515_2302)">
<path d="M25.26 0.129991C27.18 -0.460009 29.47 0.979991 29.64 3.00999C29.75 12.53 29.67 22.05 29.7 31.57V96.76C29.67 98.03 30.32 99.33 31.42 99.95C36.79 103.11 42.21 106.22 47.58 109.39C48.65 109.98 50.04 110.18 51.11 109.5C56.62 106.28 62.16 103.09 67.67 99.81C68.83 99.16 69.25 97.78 69.25 96.5V78.08C69.28 76.75 68.6 75.42 67.44 74.77C62.24 71.75 57.04 68.7 51.85 65.7C50.69 65.02 49.48 63.98 49.45 62.51C49.42 53.5 49.45 44.46 49.45 35.44C49.45 33.07 52.3 31.48 54.42 32.39C68.72 40.84 83.1 49.14 97.42 57.56C98.49 58.24 98.97 59.54 98.97 60.75V114.03C99 115.3 98.38 116.6 97.25 117.25C82.28 126.04 67.27 134.74 52.3 143.52C51.48 144 50.66 144.62 49.64 144.59C48.71 144.67 47.86 144.28 47.13 143.77C32.02 134.93 16.9 126.11 1.79001 117.27C0.72001 116.65 0.0100098 115.43 0.0100098 114.22V16.86C0.0400098 15.7 0.58001 14.46 1.59001 13.84C9.24001 9.36999 16.87 4.87999 24.52 0.449991C24.77 0.339991 25 0.199991 25.25 0.139991L25.26 0.129991Z" fill="#272932"/>
</g>
<defs>
<clipPath id="clip0_515_2302">
<rect width="98.97" height="144.63" fill="white"/>
</clipPath>
</defs>
</svg>
