<svg width="240" height="334" viewBox="0 0 240 334" fill="none" xmlns="http://www.w3.org/2000/svg">
<path d="M61.2561 0.299299C65.912 -1.06321 71.4652 2.26224 71.8775 6.9502C72.1442 28.9351 71.9502 50.9201 72.023 72.905V223.451C71.9502 226.384 73.5265 229.386 76.1939 230.818C89.2161 238.115 102.359 245.297 115.382 252.618C117.976 253.98 121.347 254.442 123.942 252.872C137.303 245.436 150.738 238.069 164.099 230.494C166.912 228.993 167.931 225.806 167.931 222.851V180.312C168.004 177.241 166.355 174.17 163.542 172.669C150.932 165.694 138.322 158.651 125.736 151.723C122.923 150.152 119.989 147.751 119.916 144.356C119.844 123.549 119.916 102.672 119.916 81.8421C119.916 76.369 126.827 72.6971 131.968 74.7986C166.646 94.3126 201.517 113.48 236.242 132.925C238.837 134.495 240.001 137.497 240.001 140.292V263.333C240.074 266.266 238.57 269.268 235.83 270.769C199.528 291.068 163.129 311.16 126.827 331.436C124.839 332.544 122.85 333.976 120.377 333.907C118.122 334.091 116.061 333.191 114.29 332.013C77.6489 311.598 40.9833 291.23 4.34185 270.816C1.74712 269.384 0.0253906 266.566 0.0253906 263.772V38.9346C0.0981399 36.2557 1.40763 33.3922 3.85685 31.9604C22.4079 21.6376 40.9105 11.2687 59.4616 1.03829C60.0678 0.78426 60.6256 0.460952 61.2318 0.322392L61.2561 0.299299Z" fill="white"/>
</svg>
