<svg width="296" height="394" viewBox="0 0 296 394" fill="none" xmlns="http://www.w3.org/2000/svg">
<g clip-path="url(#clip0_1108_1006)">
<path d="M89.2559 0.299543C93.9119 -1.06297 99.4651 2.26248 99.8773 6.95045C100.144 28.9354 99.9501 50.9203 100.023 72.9052V223.451C99.9501 226.384 101.526 229.386 104.194 230.818C117.216 238.115 130.359 245.298 143.381 252.618C145.976 253.981 149.347 254.443 151.942 252.872C165.303 245.436 178.738 238.069 192.099 230.495C194.912 228.994 195.931 225.807 195.931 222.851V180.313C196.003 177.241 194.354 174.17 191.541 172.669C178.932 165.695 166.322 158.651 153.736 151.723C150.923 150.153 147.989 147.751 147.916 144.356C147.843 123.549 147.916 102.673 147.916 81.8424C147.916 76.3692 154.827 72.6974 159.968 74.7989C194.645 94.3128 229.517 113.48 264.242 132.925C266.837 134.495 268.001 137.498 268.001 140.292V263.333C268.074 266.266 266.57 269.269 263.83 270.77C227.528 291.069 191.129 311.16 154.827 331.436C152.839 332.544 150.85 333.976 148.377 333.907C146.122 334.092 144.06 333.191 142.29 332.013C105.649 311.599 68.9831 291.23 32.3417 270.816C29.747 269.384 28.0253 266.567 28.0253 263.772V38.9348C28.098 36.256 29.4075 33.3924 31.8567 31.9606C50.4078 21.6379 68.9104 11.2689 87.4615 1.03853C88.0677 0.784504 88.6255 0.461197 89.2317 0.322636L89.2559 0.299543Z" fill="white"/>
</g>
<g filter="url(#filter0_f_1108_1006)">
<ellipse cx="148" cy="359" rx="120" ry="7" fill="black" fill-opacity="0.31"/>
</g>
<defs>
<filter id="filter0_f_1108_1006" x="0.4" y="324.4" width="295.2" height="69.2" filterUnits="userSpaceOnUse" color-interpolation-filters="sRGB">
<feFlood flood-opacity="0" result="BackgroundImageFix"/>
<feBlend mode="normal" in="SourceGraphic" in2="BackgroundImageFix" result="shape"/>
<feGaussianBlur stdDeviation="13.8" result="effect1_foregroundBlur_1108_1006"/>
</filter>
<clipPath id="clip0_1108_1006">
<rect width="240" height="334" fill="white" transform="translate(28)"/>
</clipPath>
</defs>
</svg>
