<svg width="1440" height="2587" viewBox="0 0 1440 2587" fill="none" xmlns="http://www.w3.org/2000/svg">
<line x1="38.9165" y1="-82.8755" x2="38.9165" y2="663.125" stroke="#22A49C" stroke-opacity="0.06" stroke-width="2"/>
<line x1="100.917" y1="-82.8755" x2="100.916" y2="663.125" stroke="#22A49C" stroke-opacity="0.06" stroke-width="2"/>
<line x1="162.917" y1="-82.8755" x2="162.916" y2="663.125" stroke="#22A49C" stroke-opacity="0.06" stroke-width="2"/>
<line x1="224.917" y1="-82.8755" x2="224.916" y2="663.125" stroke="#22A49C" stroke-opacity="0.06" stroke-width="2"/>
<line x1="286.917" y1="-82.8755" x2="286.916" y2="663.125" stroke="#22A49C" stroke-opacity="0.06" stroke-width="2"/>
<line x1="348.917" y1="-82.8755" x2="348.916" y2="663.125" stroke="#22A49C" stroke-opacity="0.06" stroke-width="2"/>
<line x1="410.917" y1="-82.8755" x2="410.917" y2="663.125" stroke="#22A49C" stroke-opacity="0.06" stroke-width="2"/>
<line x1="472.917" y1="-82.8755" x2="472.917" y2="663.125" stroke="#22A49C" stroke-opacity="0.06" stroke-width="2"/>
<line x1="534.917" y1="-82.8755" x2="534.917" y2="663.125" stroke="#22A49C" stroke-opacity="0.06" stroke-width="2"/>
<line x1="596.917" y1="-82.8755" x2="596.917" y2="663.125" stroke="#22A49C" stroke-opacity="0.06" stroke-width="2"/>
<line x1="658.917" y1="-82.8755" x2="658.917" y2="663.125" stroke="#22A49C" stroke-opacity="0.06" stroke-width="2"/>
<line x1="720.917" y1="-82.8755" x2="720.917" y2="663.125" stroke="#22A49C" stroke-opacity="0.06" stroke-width="2"/>
<line x1="782.917" y1="-82.8755" x2="782.917" y2="663.125" stroke="#22A49C" stroke-opacity="0.06" stroke-width="2"/>
<line x1="844.917" y1="-82.8755" x2="844.917" y2="663.125" stroke="#22A49C" stroke-opacity="0.06" stroke-width="2"/>
<line x1="906.917" y1="-82.8755" x2="906.917" y2="663.125" stroke="#22A49C" stroke-opacity="0.06" stroke-width="2"/>
<line x1="968.917" y1="-82.8755" x2="968.917" y2="663.125" stroke="#22A49C" stroke-opacity="0.06" stroke-width="2"/>
<line x1="1030.92" y1="-82.8755" x2="1030.92" y2="663.125" stroke="#22A49C" stroke-opacity="0.06" stroke-width="2"/>
<line x1="1092.92" y1="-82.8755" x2="1092.92" y2="663.125" stroke="#22A49C" stroke-opacity="0.06" stroke-width="2"/>
<line x1="1154.92" y1="-82.8755" x2="1154.92" y2="663.125" stroke="#22A49C" stroke-opacity="0.06" stroke-width="2"/>
<line x1="1216.92" y1="-82.8755" x2="1216.92" y2="663.125" stroke="#22A49C" stroke-opacity="0.06" stroke-width="2"/>
<line x1="1278.92" y1="-82.8755" x2="1278.92" y2="663.125" stroke="#22A49C" stroke-opacity="0.06" stroke-width="2"/>
<line x1="1340.92" y1="-82.8755" x2="1340.92" y2="663.125" stroke="#22A49C" stroke-opacity="0.06" stroke-width="2"/>
<line x1="1402.92" y1="-82.8755" x2="1402.92" y2="663.125" stroke="#22A49C" stroke-opacity="0.06" stroke-width="2"/>
<line x1="1440" y1="36.9365" y2="36.9365" stroke="#22A49C" stroke-opacity="0.06" stroke-width="2"/>
<line x1="1440" y1="100.937" y2="100.937" stroke="#22A49C" stroke-opacity="0.06" stroke-width="2"/>
<line x1="1440" y1="164.937" y2="164.937" stroke="#22A49C" stroke-opacity="0.06" stroke-width="2"/>
<line x1="1440" y1="228.937" y2="228.937" stroke="#22A49C" stroke-opacity="0.06" stroke-width="2"/>
<line x1="1440" y1="292.937" y2="292.937" stroke="#22A49C" stroke-opacity="0.06" stroke-width="2"/>
<line x1="1440" y1="356.937" y2="356.937" stroke="#22A49C" stroke-opacity="0.06" stroke-width="2"/>
<line x1="1440" y1="420.937" y2="420.937" stroke="#22A49C" stroke-opacity="0.06" stroke-width="2"/>
<line x1="1440" y1="484.937" y2="484.937" stroke="#22A49C" stroke-opacity="0.06" stroke-width="2"/>
<line x1="1440" y1="548.937" y2="548.937" stroke="#22A49C" stroke-opacity="0.06" stroke-width="2"/>
<line x1="1440" y1="612.937" y2="612.937" stroke="#22A49C" stroke-opacity="0.06" stroke-width="2"/>
<line x1="38.9165" y1="558.125" x2="38.9165" y2="1304.12" stroke="#22A49C" stroke-opacity="0.06" stroke-width="2"/>
<line x1="100.917" y1="558.125" x2="100.916" y2="1304.12" stroke="#22A49C" stroke-opacity="0.06" stroke-width="2"/>
<line x1="162.917" y1="558.125" x2="162.916" y2="1304.12" stroke="#22A49C" stroke-opacity="0.06" stroke-width="2"/>
<line x1="224.917" y1="558.125" x2="224.916" y2="1304.12" stroke="#22A49C" stroke-opacity="0.06" stroke-width="2"/>
<line x1="286.917" y1="558.125" x2="286.916" y2="1304.12" stroke="#22A49C" stroke-opacity="0.06" stroke-width="2"/>
<line x1="348.917" y1="558.125" x2="348.916" y2="1304.12" stroke="#22A49C" stroke-opacity="0.06" stroke-width="2"/>
<line x1="410.917" y1="558.125" x2="410.917" y2="1304.12" stroke="#22A49C" stroke-opacity="0.06" stroke-width="2"/>
<line x1="472.917" y1="558.125" x2="472.917" y2="1304.12" stroke="#22A49C" stroke-opacity="0.06" stroke-width="2"/>
<line x1="534.917" y1="558.125" x2="534.917" y2="1304.12" stroke="#22A49C" stroke-opacity="0.06" stroke-width="2"/>
<line x1="596.917" y1="558.125" x2="596.917" y2="1304.12" stroke="#22A49C" stroke-opacity="0.06" stroke-width="2"/>
<line x1="658.917" y1="558.125" x2="658.917" y2="1304.12" stroke="#22A49C" stroke-opacity="0.06" stroke-width="2"/>
<line x1="720.917" y1="558.125" x2="720.917" y2="1304.12" stroke="#22A49C" stroke-opacity="0.06" stroke-width="2"/>
<line x1="782.917" y1="558.125" x2="782.917" y2="1304.12" stroke="#22A49C" stroke-opacity="0.06" stroke-width="2"/>
<line x1="844.917" y1="558.125" x2="844.917" y2="1304.12" stroke="#22A49C" stroke-opacity="0.06" stroke-width="2"/>
<line x1="906.917" y1="558.125" x2="906.917" y2="1304.12" stroke="#22A49C" stroke-opacity="0.06" stroke-width="2"/>
<line x1="968.917" y1="558.125" x2="968.917" y2="1304.12" stroke="#22A49C" stroke-opacity="0.06" stroke-width="2"/>
<line x1="1030.92" y1="558.125" x2="1030.92" y2="1304.12" stroke="#22A49C" stroke-opacity="0.06" stroke-width="2"/>
<line x1="1092.92" y1="558.125" x2="1092.92" y2="1304.12" stroke="#22A49C" stroke-opacity="0.06" stroke-width="2"/>
<line x1="1154.92" y1="558.125" x2="1154.92" y2="1304.12" stroke="#22A49C" stroke-opacity="0.06" stroke-width="2"/>
<line x1="1216.92" y1="558.125" x2="1216.92" y2="1304.12" stroke="#22A49C" stroke-opacity="0.06" stroke-width="2"/>
<line x1="1278.92" y1="558.125" x2="1278.92" y2="1304.12" stroke="#22A49C" stroke-opacity="0.06" stroke-width="2"/>
<line x1="1340.92" y1="558.125" x2="1340.92" y2="1304.12" stroke="#22A49C" stroke-opacity="0.06" stroke-width="2"/>
<line x1="1402.92" y1="558.125" x2="1402.92" y2="1304.12" stroke="#22A49C" stroke-opacity="0.06" stroke-width="2"/>
<line x1="1440" y1="677.937" y2="677.937" stroke="#22A49C" stroke-opacity="0.06" stroke-width="2"/>
<line x1="1440" y1="741.937" y2="741.937" stroke="#22A49C" stroke-opacity="0.06" stroke-width="2"/>
<line x1="1440" y1="805.937" y2="805.937" stroke="#22A49C" stroke-opacity="0.06" stroke-width="2"/>
<line x1="1440" y1="869.937" y2="869.937" stroke="#22A49C" stroke-opacity="0.06" stroke-width="2"/>
<line x1="1440" y1="933.937" y2="933.937" stroke="#22A49C" stroke-opacity="0.06" stroke-width="2"/>
<line x1="1440" y1="997.937" y2="997.937" stroke="#22A49C" stroke-opacity="0.06" stroke-width="2"/>
<line x1="1440" y1="1061.94" y2="1061.94" stroke="#22A49C" stroke-opacity="0.06" stroke-width="2"/>
<line x1="1440" y1="1125.94" y2="1125.94" stroke="#22A49C" stroke-opacity="0.06" stroke-width="2"/>
<line x1="1440" y1="1189.94" y2="1189.94" stroke="#22A49C" stroke-opacity="0.06" stroke-width="2"/>
<line x1="1440" y1="1253.94" y2="1253.94" stroke="#22A49C" stroke-opacity="0.06" stroke-width="2"/>
<line x1="38.9165" y1="1199.12" x2="38.9165" y2="1945.12" stroke="#22A49C" stroke-opacity="0.06" stroke-width="2"/>
<line x1="100.917" y1="1199.12" x2="100.916" y2="1945.12" stroke="#22A49C" stroke-opacity="0.06" stroke-width="2"/>
<line x1="162.917" y1="1199.12" x2="162.916" y2="1945.12" stroke="#22A49C" stroke-opacity="0.06" stroke-width="2"/>
<line x1="224.917" y1="1199.12" x2="224.916" y2="1945.12" stroke="#22A49C" stroke-opacity="0.06" stroke-width="2"/>
<line x1="286.917" y1="1199.12" x2="286.916" y2="1945.12" stroke="#22A49C" stroke-opacity="0.06" stroke-width="2"/>
<line x1="348.917" y1="1199.12" x2="348.916" y2="1945.12" stroke="#22A49C" stroke-opacity="0.06" stroke-width="2"/>
<line x1="410.917" y1="1199.12" x2="410.917" y2="1945.12" stroke="#22A49C" stroke-opacity="0.06" stroke-width="2"/>
<line x1="472.917" y1="1199.12" x2="472.917" y2="1945.12" stroke="#22A49C" stroke-opacity="0.06" stroke-width="2"/>
<line x1="534.917" y1="1199.12" x2="534.917" y2="1945.12" stroke="#22A49C" stroke-opacity="0.06" stroke-width="2"/>
<line x1="596.917" y1="1199.12" x2="596.917" y2="1945.12" stroke="#22A49C" stroke-opacity="0.06" stroke-width="2"/>
<line x1="658.917" y1="1199.12" x2="658.917" y2="1945.12" stroke="#22A49C" stroke-opacity="0.06" stroke-width="2"/>
<line x1="720.917" y1="1199.12" x2="720.917" y2="1945.12" stroke="#22A49C" stroke-opacity="0.06" stroke-width="2"/>
<line x1="782.917" y1="1199.12" x2="782.917" y2="1945.12" stroke="#22A49C" stroke-opacity="0.06" stroke-width="2"/>
<line x1="844.917" y1="1199.12" x2="844.917" y2="1945.12" stroke="#22A49C" stroke-opacity="0.06" stroke-width="2"/>
<line x1="906.917" y1="1199.12" x2="906.917" y2="1945.12" stroke="#22A49C" stroke-opacity="0.06" stroke-width="2"/>
<line x1="968.917" y1="1199.12" x2="968.917" y2="1945.12" stroke="#22A49C" stroke-opacity="0.06" stroke-width="2"/>
<line x1="1030.92" y1="1199.12" x2="1030.92" y2="1945.12" stroke="#22A49C" stroke-opacity="0.06" stroke-width="2"/>
<line x1="1092.92" y1="1199.12" x2="1092.92" y2="1945.12" stroke="#22A49C" stroke-opacity="0.06" stroke-width="2"/>
<line x1="1154.92" y1="1199.12" x2="1154.92" y2="1945.12" stroke="#22A49C" stroke-opacity="0.06" stroke-width="2"/>
<line x1="1216.92" y1="1199.12" x2="1216.92" y2="1945.12" stroke="#22A49C" stroke-opacity="0.06" stroke-width="2"/>
<line x1="1278.92" y1="1199.12" x2="1278.92" y2="1945.12" stroke="#22A49C" stroke-opacity="0.06" stroke-width="2"/>
<line x1="1340.92" y1="1199.12" x2="1340.92" y2="1945.12" stroke="#22A49C" stroke-opacity="0.06" stroke-width="2"/>
<line x1="1402.92" y1="1199.12" x2="1402.92" y2="1945.12" stroke="#22A49C" stroke-opacity="0.06" stroke-width="2"/>
<line x1="1440" y1="1318.94" y2="1318.94" stroke="#22A49C" stroke-opacity="0.06" stroke-width="2"/>
<line x1="1440" y1="1382.94" y2="1382.94" stroke="#22A49C" stroke-opacity="0.06" stroke-width="2"/>
<line x1="1440" y1="1446.94" y2="1446.94" stroke="#22A49C" stroke-opacity="0.06" stroke-width="2"/>
<line x1="1440" y1="1510.94" y2="1510.94" stroke="#22A49C" stroke-opacity="0.06" stroke-width="2"/>
<line x1="1440" y1="1574.94" y2="1574.94" stroke="#22A49C" stroke-opacity="0.06" stroke-width="2"/>
<line x1="1440" y1="1638.94" y2="1638.94" stroke="#22A49C" stroke-opacity="0.06" stroke-width="2"/>
<line x1="1440" y1="1702.94" y2="1702.94" stroke="#22A49C" stroke-opacity="0.06" stroke-width="2"/>
<line x1="1440" y1="1766.94" y2="1766.94" stroke="#22A49C" stroke-opacity="0.06" stroke-width="2"/>
<line x1="1440" y1="1830.94" y2="1830.94" stroke="#22A49C" stroke-opacity="0.06" stroke-width="2"/>
<line x1="1440" y1="1894.94" y2="1894.94" stroke="#22A49C" stroke-opacity="0.06" stroke-width="2"/>
<line x1="38.9165" y1="1840.12" x2="38.9165" y2="2586.12" stroke="#22A49C" stroke-opacity="0.06" stroke-width="2"/>
<line x1="100.917" y1="1840.12" x2="100.916" y2="2586.12" stroke="#22A49C" stroke-opacity="0.06" stroke-width="2"/>
<line x1="162.917" y1="1840.12" x2="162.916" y2="2586.12" stroke="#22A49C" stroke-opacity="0.06" stroke-width="2"/>
<line x1="224.917" y1="1840.12" x2="224.916" y2="2586.12" stroke="#22A49C" stroke-opacity="0.06" stroke-width="2"/>
<line x1="286.917" y1="1840.12" x2="286.916" y2="2586.12" stroke="#22A49C" stroke-opacity="0.06" stroke-width="2"/>
<line x1="348.917" y1="1840.12" x2="348.916" y2="2586.12" stroke="#22A49C" stroke-opacity="0.06" stroke-width="2"/>
<line x1="410.917" y1="1840.12" x2="410.917" y2="2586.12" stroke="#22A49C" stroke-opacity="0.06" stroke-width="2"/>
<line x1="472.917" y1="1840.12" x2="472.917" y2="2586.12" stroke="#22A49C" stroke-opacity="0.06" stroke-width="2"/>
<line x1="534.917" y1="1840.12" x2="534.917" y2="2586.12" stroke="#22A49C" stroke-opacity="0.06" stroke-width="2"/>
<line x1="596.917" y1="1840.12" x2="596.917" y2="2586.12" stroke="#22A49C" stroke-opacity="0.06" stroke-width="2"/>
<line x1="658.917" y1="1840.12" x2="658.917" y2="2586.12" stroke="#22A49C" stroke-opacity="0.06" stroke-width="2"/>
<line x1="720.917" y1="1840.12" x2="720.917" y2="2586.12" stroke="#22A49C" stroke-opacity="0.06" stroke-width="2"/>
<line x1="782.917" y1="1840.12" x2="782.917" y2="2586.12" stroke="#22A49C" stroke-opacity="0.06" stroke-width="2"/>
<line x1="844.917" y1="1840.12" x2="844.917" y2="2586.12" stroke="#22A49C" stroke-opacity="0.06" stroke-width="2"/>
<line x1="906.917" y1="1840.12" x2="906.917" y2="2586.12" stroke="#22A49C" stroke-opacity="0.06" stroke-width="2"/>
<line x1="968.917" y1="1840.12" x2="968.917" y2="2586.12" stroke="#22A49C" stroke-opacity="0.06" stroke-width="2"/>
<line x1="1030.92" y1="1840.12" x2="1030.92" y2="2586.12" stroke="#22A49C" stroke-opacity="0.06" stroke-width="2"/>
<line x1="1092.92" y1="1840.12" x2="1092.92" y2="2586.12" stroke="#22A49C" stroke-opacity="0.06" stroke-width="2"/>
<line x1="1154.92" y1="1840.12" x2="1154.92" y2="2586.12" stroke="#22A49C" stroke-opacity="0.06" stroke-width="2"/>
<line x1="1216.92" y1="1840.12" x2="1216.92" y2="2586.12" stroke="#22A49C" stroke-opacity="0.06" stroke-width="2"/>
<line x1="1278.92" y1="1840.12" x2="1278.92" y2="2586.12" stroke="#22A49C" stroke-opacity="0.06" stroke-width="2"/>
<line x1="1340.92" y1="1840.12" x2="1340.92" y2="2586.12" stroke="#22A49C" stroke-opacity="0.06" stroke-width="2"/>
<line x1="1402.92" y1="1840.12" x2="1402.92" y2="2586.12" stroke="#22A49C" stroke-opacity="0.06" stroke-width="2"/>
<line x1="1440" y1="1959.94" y2="1959.94" stroke="#22A49C" stroke-opacity="0.06" stroke-width="2"/>
<line x1="1440" y1="2023.94" y2="2023.94" stroke="#22A49C" stroke-opacity="0.06" stroke-width="2"/>
<line x1="1440" y1="2087.94" y2="2087.94" stroke="#22A49C" stroke-opacity="0.06" stroke-width="2"/>
<line x1="1440" y1="2151.94" y2="2151.94" stroke="#22A49C" stroke-opacity="0.06" stroke-width="2"/>
<line x1="1440" y1="2215.94" y2="2215.94" stroke="#22A49C" stroke-opacity="0.06" stroke-width="2"/>
<line x1="1440" y1="2279.94" y2="2279.94" stroke="#22A49C" stroke-opacity="0.06" stroke-width="2"/>
<line x1="1440" y1="2343.94" y2="2343.94" stroke="#22A49C" stroke-opacity="0.06" stroke-width="2"/>
<line x1="1440" y1="2407.94" y2="2407.94" stroke="#22A49C" stroke-opacity="0.06" stroke-width="2"/>
<line x1="1440" y1="2471.94" y2="2471.94" stroke="#22A49C" stroke-opacity="0.06" stroke-width="2"/>
<line x1="1440" y1="2535.94" y2="2535.94" stroke="#22A49C" stroke-opacity="0.06" stroke-width="2"/>
</svg>
