<svg width="9" height="9" viewBox="0 0 9 9" fill="none" xmlns="http://www.w3.org/2000/svg">
<path d="M3.31937 1.98517C3.50391 1.41722 3.59617 1.13325 3.68467 1.00863C4.0833 0.447296 4.9167 0.447296 5.31533 1.00863C5.40383 1.13325 5.49609 1.41722 5.68063 1.98517C5.73241 2.14454 5.75831 2.22423 5.79243 2.29212C5.93793 2.58152 6.21459 2.78253 6.53479 2.83147C6.6099 2.84295 6.69369 2.84295 6.86126 2.84295C7.45844 2.84295 7.75703 2.84295 7.90289 2.88861C8.55994 3.09426 8.81747 3.88688 8.40679 4.43946C8.31562 4.56213 8.07406 4.73764 7.59093 5.08865C7.45536 5.18714 7.38758 5.23639 7.33356 5.28983C7.10328 5.51763 6.9976 5.84287 7.05001 6.16253C7.0623 6.2375 7.08819 6.31719 7.13997 6.47656C7.32451 7.04451 7.41678 7.32848 7.41843 7.48132C7.42588 8.16976 6.75164 8.65962 6.0992 8.4398C5.95436 8.391 5.7128 8.21549 5.22967 7.86448C5.0941 7.76598 5.02632 7.71673 4.9588 7.68187C4.67099 7.53326 4.32901 7.53326 4.0412 7.68187C3.97368 7.71673 3.9059 7.76598 3.77033 7.86448C3.2872 8.21549 3.04564 8.391 2.9008 8.4398C2.24836 8.65962 1.57412 8.16976 1.58157 7.48132C1.58322 7.32848 1.67549 7.04451 1.86003 6.47656C1.91181 6.31719 1.9377 6.2375 1.94999 6.16253C2.0024 5.84287 1.89672 5.51763 1.66644 5.28983C1.61242 5.23639 1.54464 5.18714 1.40907 5.08865C0.925941 4.73764 0.684378 4.56213 0.593206 4.43946C0.182525 3.88688 0.440062 3.09426 1.09711 2.88861C1.24297 2.84295 1.54156 2.84295 2.13874 2.84295C2.30631 2.84295 2.3901 2.84295 2.46521 2.83147C2.78541 2.78253 3.06207 2.58152 3.20757 2.29212C3.24169 2.22423 3.26759 2.14454 3.31937 1.98517Z" fill="#22A49C"/>
</svg>
