<svg width="1440" height="922" viewBox="0 0 1440 922" fill="none" xmlns="http://www.w3.org/2000/svg">
<mask id="mask0_1017_14561" style="mask-type:luminance" maskUnits="userSpaceOnUse" x="-316" y="-668" width="2803" height="2712">
<path d="M1558.42 -668L-316 1001.75L611.637 2043.09L2486.06 373.346L1558.42 -668Z" fill="white"/>
</mask>
<g mask="url(#mask0_1017_14561)">
<path d="M1257.75 761.339C1258.95 762.697 1258.83 764.784 1257.48 765.993C1256.12 767.203 1254.03 767.083 1252.82 765.725C1251.61 764.367 1251.73 762.28 1253.09 761.07C1254.45 759.86 1256.54 759.981 1257.75 761.339Z" fill="white"/>
</g>
<mask id="mask1_1017_14561" style="mask-type:luminance" maskUnits="userSpaceOnUse" x="-316" y="-668" width="2803" height="2712">
<path d="M1558.42 -668L-316 1001.75L611.637 2043.09L2486.06 373.346L1558.42 -668Z" fill="white"/>
</mask>
<g mask="url(#mask1_1017_14561)">
<path d="M1210.7 719.13C1211.97 720.563 1211.85 722.765 1210.41 724.045C1208.97 725.325 1206.78 725.198 1205.5 723.761C1204.22 722.328 1204.34 720.127 1205.78 718.847C1207.22 717.566 1209.42 717.693 1210.7 719.13Z" fill="white"/>
</g>
<mask id="mask2_1017_14561" style="mask-type:luminance" maskUnits="userSpaceOnUse" x="-316" y="-668" width="2803" height="2712">
<path d="M1558.42 -668L-316 1001.75L611.637 2043.09L2486.06 373.346L1558.42 -668Z" fill="white"/>
</mask>
<g mask="url(#mask2_1017_14561)">
<path d="M1156.81 671.146C1158.12 672.616 1158 674.873 1156.52 676.186C1155.05 677.496 1152.79 677.37 1151.48 675.895C1150.17 674.421 1150.3 672.168 1151.77 670.855C1153.25 669.541 1155.5 669.676 1156.81 671.146Z" fill="white"/>
</g>
<mask id="mask3_1017_14561" style="mask-type:luminance" maskUnits="userSpaceOnUse" x="-316" y="-668" width="2803" height="2712">
<path d="M1558.42 -668L-316 1001.75L611.637 2043.09L2486.06 373.346L1558.42 -668Z" fill="white"/>
</mask>
<g mask="url(#mask3_1017_14561)">
<path d="M1022.85 599.869C1023.53 600.622 1023.46 601.772 1022.7 602.444C1021.95 603.116 1020.8 603.049 1020.13 602.295C1019.46 601.541 1019.52 600.391 1020.28 599.72C1021.03 599.044 1022.18 599.115 1022.85 599.869Z" fill="white"/>
</g>
<mask id="mask4_1017_14561" style="mask-type:luminance" maskUnits="userSpaceOnUse" x="-316" y="-668" width="2803" height="2712">
<path d="M1558.42 -668L-316 1001.75L611.637 2043.09L2486.06 373.346L1558.42 -668Z" fill="white"/>
</mask>
<g mask="url(#mask4_1017_14561)">
<path d="M778.994 538.313C779.376 538.742 779.338 539.395 778.909 539.778C778.48 540.16 777.826 540.122 777.444 539.693C777.062 539.264 777.1 538.61 777.529 538.228C777.957 537.854 778.615 537.888 778.994 538.313Z" fill="white"/>
</g>
<mask id="mask5_1017_14561" style="mask-type:luminance" maskUnits="userSpaceOnUse" x="-316" y="-668" width="2803" height="2712">
<path d="M1558.42 -668L-316 1001.75L611.637 2043.09L2486.06 373.346L1558.42 -668Z" fill="white"/>
</mask>
<g mask="url(#mask5_1017_14561)">
<path d="M701.253 533.373C701.869 534.064 701.808 535.127 701.116 535.743C700.425 536.359 699.362 536.298 698.746 535.606C698.13 534.915 698.191 533.852 698.883 533.236C699.578 532.616 700.637 532.681 701.253 533.373Z" fill="white"/>
</g>
<mask id="mask6_1017_14561" style="mask-type:luminance" maskUnits="userSpaceOnUse" x="-316" y="-668" width="2803" height="2712">
<path d="M1558.42 -668L-316 1001.75L611.637 2043.09L2486.06 373.346L1558.42 -668Z" fill="white"/>
</mask>
<g mask="url(#mask6_1017_14561)">
<path d="M455.911 578.692C457.731 577.071 457.892 574.282 456.271 572.462C454.65 570.643 451.861 570.482 450.041 572.103C448.221 573.724 448.06 576.513 449.681 578.332C451.302 580.152 454.091 580.313 455.911 578.692Z" fill="white"/>
</g>
<mask id="mask7_1017_14561" style="mask-type:luminance" maskUnits="userSpaceOnUse" x="-316" y="-668" width="2803" height="2712">
<path d="M1558.42 -668L-316 1001.75L611.637 2043.09L2486.06 373.346L1558.42 -668Z" fill="white"/>
</mask>
<g mask="url(#mask7_1017_14561)">
<path d="M364.063 615.546C365.758 614.036 365.908 611.437 364.398 609.742C362.888 608.046 360.289 607.896 358.593 609.406C356.898 610.917 356.748 613.516 358.258 615.211C359.768 616.906 362.367 617.057 364.063 615.546Z" fill="white"/>
</g>
<mask id="mask8_1017_14561" style="mask-type:luminance" maskUnits="userSpaceOnUse" x="-316" y="-668" width="2803" height="2712">
<path d="M1558.42 -668L-316 1001.75L611.637 2043.09L2486.06 373.346L1558.42 -668Z" fill="white"/>
</mask>
<g mask="url(#mask8_1017_14561)">
<path d="M307.359 640.126C308.064 640.917 307.99 642.126 307.203 642.827C306.415 643.529 305.203 643.459 304.501 642.671C303.796 641.88 303.87 640.671 304.657 639.97C305.445 639.269 306.654 639.335 307.359 640.126Z" fill="white"/>
</g>
<mask id="mask9_1017_14561" style="mask-type:luminance" maskUnits="userSpaceOnUse" x="-316" y="-668" width="2803" height="2712">
<path d="M1558.42 -668L-316 1001.75L611.637 2043.09L2486.06 373.346L1558.42 -668Z" fill="white"/>
</mask>
<g mask="url(#mask9_1017_14561)">
<path d="M241.136 687.895C241.447 687.619 241.474 687.143 241.198 686.832C240.921 686.522 240.445 686.494 240.135 686.771C239.824 687.047 239.797 687.523 240.073 687.834C240.35 688.144 240.826 688.172 241.136 687.895Z" fill="white"/>
</g>
<mask id="mask10_1017_14561" style="mask-type:luminance" maskUnits="userSpaceOnUse" x="-316" y="-668" width="2803" height="2712">
<path d="M1558.42 -668L-316 1001.75L611.637 2043.09L2486.06 373.346L1558.42 -668Z" fill="white"/>
</mask>
<g mask="url(#mask10_1017_14561)">
<path d="M174.647 737.834C175.256 737.291 175.31 736.357 174.767 735.747C174.224 735.137 173.29 735.084 172.68 735.627C172.07 736.17 172.016 737.104 172.559 737.714C173.103 738.323 174.037 738.377 174.647 737.834Z" fill="white"/>
</g>
<mask id="mask11_1017_14561" style="mask-type:luminance" maskUnits="userSpaceOnUse" x="-316" y="-668" width="2803" height="2712">
<path d="M1558.42 -668L-316 1001.75L611.637 2043.09L2486.06 373.346L1558.42 -668Z" fill="white"/>
</mask>
<g mask="url(#mask11_1017_14561)">
<path d="M1151.51 833.151C1152.65 834.43 1152.54 836.391 1151.26 837.53C1149.98 838.669 1148.02 838.556 1146.88 837.277C1145.74 835.998 1145.85 834.037 1147.13 832.898C1148.42 831.755 1150.37 831.872 1151.51 833.151Z" fill="white"/>
</g>
<mask id="mask12_1017_14561" style="mask-type:luminance" maskUnits="userSpaceOnUse" x="-316" y="-668" width="2803" height="2712">
<path d="M1558.42 -668L-316 1001.75L611.637 2043.09L2486.06 373.346L1558.42 -668Z" fill="white"/>
</mask>
<g mask="url(#mask12_1017_14561)">
<path d="M1048.75 925.583C1050.38 924.126 1050.53 921.619 1049.07 919.983C1047.61 918.347 1045.11 918.203 1043.47 919.66C1041.83 921.117 1041.69 923.624 1043.15 925.259C1044.6 926.895 1047.11 927.04 1048.75 925.583Z" fill="white"/>
</g>
<mask id="mask13_1017_14561" style="mask-type:luminance" maskUnits="userSpaceOnUse" x="-316" y="-668" width="2803" height="2712">
<path d="M1558.42 -668L-316 1001.75L611.637 2043.09L2486.06 373.346L1558.42 -668Z" fill="white"/>
</mask>
<g mask="url(#mask13_1017_14561)">
<path d="M940.613 696.16C941.936 694.982 942.053 692.954 940.875 691.631C939.697 690.309 937.669 690.191 936.346 691.37C935.023 692.548 934.906 694.576 936.085 695.898C937.263 697.221 939.291 697.338 940.613 696.16Z" fill="white"/>
</g>
<mask id="mask14_1017_14561" style="mask-type:luminance" maskUnits="userSpaceOnUse" x="-316" y="-668" width="2803" height="2712">
<path d="M1558.42 -668L-316 1001.75L611.637 2043.09L2486.06 373.346L1558.42 -668Z" fill="white"/>
</mask>
<g mask="url(#mask14_1017_14561)">
<path d="M913.908 852.966C915.164 851.847 915.276 849.922 914.157 848.666C913.038 847.41 911.112 847.299 909.856 848.417C908.6 849.536 908.489 851.462 909.608 852.718C910.727 853.974 912.652 854.085 913.908 852.966Z" fill="white"/>
</g>
<mask id="mask15_1017_14561" style="mask-type:luminance" maskUnits="userSpaceOnUse" x="-316" y="-668" width="2803" height="2712">
<path d="M1558.42 -668L-316 1001.75L611.637 2043.09L2486.06 373.346L1558.42 -668Z" fill="white"/>
</mask>
<g mask="url(#mask15_1017_14561)">
<path d="M771.387 720.576C773.595 718.609 773.791 715.224 771.823 713.016C769.856 710.807 766.471 710.612 764.262 712.579C762.054 714.546 761.858 717.931 763.826 720.14C765.793 722.348 769.178 722.544 771.387 720.576Z" fill="white"/>
</g>
<mask id="mask16_1017_14561" style="mask-type:luminance" maskUnits="userSpaceOnUse" x="-316" y="-668" width="2803" height="2712">
<path d="M1558.42 -668L-316 1001.75L611.637 2043.09L2486.06 373.346L1558.42 -668Z" fill="white"/>
</mask>
<g mask="url(#mask16_1017_14561)">
<path d="M592.141 831.923C592.801 832.664 592.736 833.798 591.995 834.459C591.253 835.119 590.119 835.054 589.458 834.312C588.798 833.571 588.863 832.437 589.605 831.776C590.342 831.12 591.48 831.181 592.141 831.923Z" fill="white"/>
</g>
<mask id="mask17_1017_14561" style="mask-type:luminance" maskUnits="userSpaceOnUse" x="-316" y="-668" width="2803" height="2712">
<path d="M1558.42 -668L-316 1001.75L611.637 2043.09L2486.06 373.346L1558.42 -668Z" fill="white"/>
</mask>
<g mask="url(#mask17_1017_14561)">
<path d="M581.13 863.943C581.794 864.688 581.728 865.83 580.983 866.494C580.237 867.159 579.095 867.093 578.431 866.347C577.767 865.602 577.833 864.459 578.578 863.795C579.324 863.131 580.466 863.197 581.13 863.943Z" fill="white"/>
</g>
<mask id="mask18_1017_14561" style="mask-type:luminance" maskUnits="userSpaceOnUse" x="-316" y="-668" width="2803" height="2712">
<path d="M1558.42 -668L-316 1001.75L611.637 2043.09L2486.06 373.346L1558.42 -668Z" fill="white"/>
</mask>
<g mask="url(#mask18_1017_14561)">
<path d="M293.647 669.502C294.17 670.089 294.118 670.995 293.531 671.518C292.943 672.041 292.038 671.989 291.514 671.401C290.991 670.814 291.043 669.908 291.631 669.385C292.218 668.862 293.124 668.914 293.647 669.502Z" fill="white"/>
</g>
<mask id="mask19_1017_14561" style="mask-type:luminance" maskUnits="userSpaceOnUse" x="-316" y="-668" width="2803" height="2712">
<path d="M1558.42 -668L-316 1001.75L611.637 2043.09L2486.06 373.346L1558.42 -668Z" fill="white"/>
</mask>
<g mask="url(#mask19_1017_14561)">
<path d="M245.859 681.538C246.553 682.317 246.484 683.506 245.705 684.2C244.926 684.894 243.737 684.825 243.043 684.047C242.349 683.268 242.418 682.078 243.197 681.385C243.972 680.694 245.165 680.759 245.859 681.538Z" fill="white"/>
</g>
<mask id="mask20_1017_14561" style="mask-type:luminance" maskUnits="userSpaceOnUse" x="-316" y="-668" width="2803" height="2712">
<path d="M1558.42 -668L-316 1001.75L611.637 2043.09L2486.06 373.346L1558.42 -668Z" fill="white"/>
</mask>
<g mask="url(#mask20_1017_14561)">
<path d="M384.762 874.451C385.604 873.701 385.679 872.411 384.929 871.569C384.179 870.727 382.888 870.652 382.046 871.402C381.204 872.152 381.13 873.443 381.88 874.285C382.63 875.127 383.92 875.201 384.762 874.451Z" fill="white"/>
</g>
<mask id="mask21_1017_14561" style="mask-type:luminance" maskUnits="userSpaceOnUse" x="-316" y="-668" width="2803" height="2712">
<path d="M1558.42 -668L-316 1001.75L611.637 2043.09L2486.06 373.346L1558.42 -668Z" fill="white"/>
</mask>
<g mask="url(#mask21_1017_14561)">
<path d="M282.795 847.35C283.976 846.298 284.08 844.489 283.029 843.309C281.977 842.129 280.169 842.025 278.988 843.076C277.808 844.127 277.704 845.936 278.755 847.116C279.806 848.296 281.615 848.401 282.795 847.35Z" fill="white"/>
</g>
<mask id="mask22_1017_14561" style="mask-type:luminance" maskUnits="userSpaceOnUse" x="-316" y="-668" width="2803" height="2712">
<path d="M1558.42 -668L-316 1001.75L611.637 2043.09L2486.06 373.346L1558.42 -668Z" fill="white"/>
</mask>
<g mask="url(#mask22_1017_14561)">
<path d="M192.601 882.229C194.172 880.829 194.311 878.421 192.912 876.85C191.512 875.278 189.104 875.139 187.532 876.539C185.961 877.939 185.822 880.347 187.222 881.918C188.621 883.489 191.03 883.629 192.601 882.229Z" fill="white"/>
</g>
<mask id="mask23_1017_14561" style="mask-type:luminance" maskUnits="userSpaceOnUse" x="-316" y="-668" width="2803" height="2712">
<path d="M1558.42 -668L-316 1001.75L611.637 2043.09L2486.06 373.346L1558.42 -668Z" fill="white"/>
</mask>
<g mask="url(#mask23_1017_14561)">
<path d="M1241.91 639.244C1243.62 637.725 1243.77 635.112 1242.25 633.408C1240.73 631.703 1238.12 631.552 1236.41 633.071C1234.71 634.589 1234.56 637.202 1236.08 638.907C1237.59 640.612 1240.21 640.762 1241.91 639.244Z" fill="white"/>
</g>
<mask id="mask24_1017_14561" style="mask-type:luminance" maskUnits="userSpaceOnUse" x="-316" y="-668" width="2803" height="2712">
<path d="M1558.42 -668L-316 1001.75L611.637 2043.09L2486.06 373.346L1558.42 -668Z" fill="white"/>
</mask>
<g mask="url(#mask24_1017_14561)">
<path d="M1124.69 716.407C1123.55 714.293 1120.91 713.507 1118.79 714.65C1116.68 715.793 1115.89 718.433 1117.04 720.547C1118.18 722.661 1120.82 723.447 1122.93 722.304C1125.05 721.161 1125.83 718.521 1124.69 716.407Z" fill="white"/>
</g>
<mask id="mask25_1017_14561" style="mask-type:luminance" maskUnits="userSpaceOnUse" x="-316" y="-668" width="2803" height="2712">
<path d="M1558.42 -668L-316 1001.75L611.637 2043.09L2486.06 373.346L1558.42 -668Z" fill="white"/>
</mask>
<g mask="url(#mask25_1017_14561)">
<path d="M1345.03 872.909C1346.21 871.855 1346.32 870.043 1345.26 868.86C1344.21 867.678 1342.4 867.573 1341.22 868.627C1340.03 869.68 1339.93 871.492 1340.98 872.675C1342.03 873.857 1343.85 873.962 1345.03 872.909Z" fill="white"/>
</g>
<mask id="mask26_1017_14561" style="mask-type:luminance" maskUnits="userSpaceOnUse" x="-316" y="-668" width="2803" height="2712">
<path d="M1558.42 -668L-316 1001.75L611.637 2043.09L2486.06 373.346L1558.42 -668Z" fill="white"/>
</mask>
<g mask="url(#mask26_1017_14561)">
<path d="M1252.15 726.842C1252.95 726.131 1253.02 724.908 1252.31 724.11C1251.59 723.311 1250.37 723.241 1249.57 723.952C1248.77 724.663 1248.7 725.886 1249.41 726.685C1250.13 727.483 1251.35 727.554 1252.15 726.842Z" fill="white"/>
</g>
<mask id="mask27_1017_14561" style="mask-type:luminance" maskUnits="userSpaceOnUse" x="-316" y="-668" width="2803" height="2712">
<path d="M1558.42 -668L-316 1001.75L611.637 2043.09L2486.06 373.346L1558.42 -668Z" fill="white"/>
</mask>
<g mask="url(#mask27_1017_14561)">
<path d="M1238.11 724.498C1238.59 725.036 1238.54 725.863 1238 726.341C1237.46 726.82 1236.64 726.772 1236.16 726.235C1235.68 725.698 1235.73 724.871 1236.26 724.392C1236.8 723.909 1237.62 723.957 1238.11 724.498Z" fill="white"/>
</g>
<mask id="mask28_1017_14561" style="mask-type:luminance" maskUnits="userSpaceOnUse" x="-316" y="-668" width="2803" height="2712">
<path d="M1558.42 -668L-316 1001.75L611.637 2043.09L2486.06 373.346L1558.42 -668Z" fill="white"/>
</mask>
<g mask="url(#mask28_1017_14561)">
<path d="M1256.49 702.233C1257.18 703.004 1257.11 704.185 1256.34 704.871C1255.57 705.558 1254.39 705.49 1253.7 704.719C1253.02 703.948 1253.08 702.767 1253.85 702.081C1254.62 701.398 1255.81 701.462 1256.49 702.233Z" fill="white"/>
</g>
<mask id="mask29_1017_14561" style="mask-type:luminance" maskUnits="userSpaceOnUse" x="-316" y="-668" width="2803" height="2712">
<path d="M1558.42 -668L-316 1001.75L611.637 2043.09L2486.06 373.346L1558.42 -668Z" fill="white"/>
</mask>
<g mask="url(#mask29_1017_14561)">
<path d="M1236.48 692.432C1236.94 692.952 1236.89 693.748 1236.37 694.212C1235.85 694.676 1235.06 694.63 1234.59 694.109C1234.13 693.588 1234.17 692.793 1234.7 692.329C1235.22 691.865 1236.01 691.911 1236.48 692.432Z" fill="white"/>
</g>
<mask id="mask30_1017_14561" style="mask-type:luminance" maskUnits="userSpaceOnUse" x="-316" y="-668" width="2803" height="2712">
<path d="M1558.42 -668L-316 1001.75L611.637 2043.09L2486.06 373.346L1558.42 -668Z" fill="white"/>
</mask>
<g mask="url(#mask30_1017_14561)">
<path d="M894.731 545.684C895.677 546.746 895.583 548.376 894.521 549.323C893.459 550.269 891.828 550.175 890.882 549.113C889.936 548.05 890.03 546.42 891.092 545.474C892.155 544.528 893.785 544.622 894.731 545.684Z" fill="white"/>
</g>
<mask id="mask31_1017_14561" style="mask-type:luminance" maskUnits="userSpaceOnUse" x="-316" y="-668" width="2803" height="2712">
<path d="M1558.42 -668L-316 1001.75L611.637 2043.09L2486.06 373.346L1558.42 -668Z" fill="white"/>
</mask>
<g mask="url(#mask31_1017_14561)">
<path d="M729.876 891.118C730.7 890.385 730.773 889.122 730.039 888.299C729.306 887.475 728.043 887.402 727.22 888.136C726.396 888.87 726.323 890.132 727.057 890.956C727.791 891.779 729.053 891.852 729.876 891.118Z" fill="white"/>
</g>
<mask id="mask32_1017_14561" style="mask-type:luminance" maskUnits="userSpaceOnUse" x="-316" y="-668" width="2803" height="2712">
<path d="M1558.42 -668L-316 1001.75L611.637 2043.09L2486.06 373.346L1558.42 -668Z" fill="white"/>
</mask>
<g mask="url(#mask32_1017_14561)">
<path d="M615.134 664.08C616.404 662.948 616.516 661.002 615.385 659.732C614.254 658.462 612.307 658.35 611.038 659.481C609.768 660.612 609.655 662.559 610.787 663.829C611.918 665.098 613.864 665.211 615.134 664.08Z" fill="white"/>
</g>
<mask id="mask33_1017_14561" style="mask-type:luminance" maskUnits="userSpaceOnUse" x="-316" y="-668" width="2803" height="2712">
<path d="M1558.42 -668L-316 1001.75L611.637 2043.09L2486.06 373.346L1558.42 -668Z" fill="white"/>
</mask>
<g mask="url(#mask33_1017_14561)">
<path d="M538.749 855.054C539.827 854.093 539.923 852.439 538.962 851.361C538.001 850.282 536.347 850.186 535.268 851.147C534.189 852.108 534.094 853.762 535.055 854.841C536.016 855.92 537.67 856.015 538.749 855.054Z" fill="white"/>
</g>
<mask id="mask34_1017_14561" style="mask-type:luminance" maskUnits="userSpaceOnUse" x="-316" y="-668" width="2803" height="2712">
<path d="M1558.42 -668L-316 1001.75L611.637 2043.09L2486.06 373.346L1558.42 -668Z" fill="white"/>
</mask>
<g mask="url(#mask34_1017_14561)">
<path d="M1343.12 870.768L1415.06 993.455L1234.12 947.323L1343.12 870.768Z" stroke="white" stroke-width="0.876001" stroke-miterlimit="10" stroke-linecap="round" stroke-linejoin="round"/>
</g>
<mask id="mask35_1017_14561" style="mask-type:luminance" maskUnits="userSpaceOnUse" x="-316" y="-668" width="2803" height="2712">
<path d="M1558.42 -668L-316 1001.75L611.637 2043.09L2486.06 373.346L1558.42 -668Z" fill="white"/>
</mask>
<g mask="url(#mask35_1017_14561)">
<path d="M361.328 612.476L452.978 575.397L613.086 661.78L361.328 612.476Z" stroke="white" stroke-width="0.876001" stroke-miterlimit="10" stroke-linecap="round" stroke-linejoin="round"/>
</g>
<mask id="mask36_1017_14561" style="mask-type:luminance" maskUnits="userSpaceOnUse" x="-316" y="-668" width="2803" height="2712">
<path d="M1558.42 -668L-316 1001.75L611.637 2043.09L2486.06 373.346L1558.42 -668Z" fill="white"/>
</mask>
<g mask="url(#mask36_1017_14561)">
<path d="M21.0401 934.23L173.662 736.73L190.067 879.383L21.0401 934.23Z" stroke="white" stroke-width="0.876001" stroke-miterlimit="10" stroke-linecap="round" stroke-linejoin="round"/>
</g>
<mask id="mask37_1017_14561" style="mask-type:luminance" maskUnits="userSpaceOnUse" x="-316" y="-668" width="2803" height="2712">
<path d="M1558.42 -668L-316 1001.75L611.637 2043.09L2486.06 373.346L1558.42 -668Z" fill="white"/>
</mask>
<g mask="url(#mask37_1017_14561)">
<path d="M699.998 534.489L892.809 547.394L767.825 716.577L699.998 534.489Z" stroke="white" stroke-width="0.876001" stroke-miterlimit="10" stroke-linecap="round" stroke-linejoin="round"/>
</g>
<mask id="mask38_1017_14561" style="mask-type:luminance" maskUnits="userSpaceOnUse" x="-316" y="-668" width="2803" height="2712">
<path d="M1558.42 -668L-316 1001.75L611.637 2043.09L2486.06 373.346L1558.42 -668Z" fill="white"/>
</mask>
<g mask="url(#mask38_1017_14561)">
<path d="M1021.49 601.082L1154.15 673.517L1120.78 718.422L1021.49 601.082Z" stroke="white" stroke-width="0.876001" stroke-miterlimit="10" stroke-linecap="round" stroke-linejoin="round"/>
</g>
<mask id="mask39_1017_14561" style="mask-type:luminance" maskUnits="userSpaceOnUse" x="-316" y="-668" width="2803" height="2712">
<path d="M1558.42 -668L-316 1001.75L611.637 2043.09L2486.06 373.346L1558.42 -668Z" fill="white"/>
</mask>
<g mask="url(#mask39_1017_14561)">
<path d="M1235.53 693.27L1255.09 703.48L1250.86 725.397L1235.53 693.27Z" stroke="white" stroke-width="0.876001" stroke-miterlimit="10" stroke-linecap="round" stroke-linejoin="round"/>
</g>
<mask id="mask40_1017_14561" style="mask-type:luminance" maskUnits="userSpaceOnUse" x="-316" y="-668" width="2803" height="2712">
<path d="M1558.42 -668L-316 1001.75L611.637 2043.09L2486.06 373.346L1558.42 -668Z" fill="white"/>
</mask>
<g mask="url(#mask40_1017_14561)">
<path d="M1237.13 725.37L1250.86 725.397L1255.09 703.48L1237.13 725.37Z" stroke="white" stroke-width="0.876001" stroke-miterlimit="10" stroke-linecap="round" stroke-linejoin="round"/>
</g>
<mask id="mask41_1017_14561" style="mask-type:luminance" maskUnits="userSpaceOnUse" x="-316" y="-668" width="2803" height="2712">
<path d="M1558.42 -668L-316 1001.75L611.637 2043.09L2486.06 373.346L1558.42 -668Z" fill="white"/>
</mask>
<g mask="url(#mask41_1017_14561)">
<path d="M911.883 850.692L1046.11 922.621L900.766 1037.79L911.883 850.692Z" stroke="white" stroke-width="0.876001" stroke-miterlimit="10" stroke-linecap="round" stroke-linejoin="round"/>
</g>
<mask id="mask42_1017_14561" style="mask-type:luminance" maskUnits="userSpaceOnUse" x="-316" y="-668" width="2803" height="2712">
<path d="M1558.42 -668L-316 1001.75L611.637 2043.09L2486.06 373.346L1558.42 -668Z" fill="white"/>
</mask>
<g mask="url(#mask42_1017_14561)">
<path d="M1360.46 1139.17L1343.12 870.768L1415.06 993.455L1360.46 1139.17Z" stroke="white" stroke-width="0.876001" stroke-miterlimit="10" stroke-linecap="round" stroke-linejoin="round"/>
</g>
<mask id="mask43_1017_14561" style="mask-type:luminance" maskUnits="userSpaceOnUse" x="-316" y="-668" width="2803" height="2712">
<path d="M1558.42 -668L-316 1001.75L611.637 2043.09L2486.06 373.346L1558.42 -668Z" fill="white"/>
</mask>
<g mask="url(#mask43_1017_14561)">
<path d="M1234.12 947.323L1046.11 922.621L1098.11 1169.98L1234.12 947.323Z" stroke="white" stroke-width="0.876001" stroke-miterlimit="10" stroke-linecap="round" stroke-linejoin="round"/>
</g>
<mask id="mask44_1017_14561" style="mask-type:luminance" maskUnits="userSpaceOnUse" x="-316" y="-668" width="2803" height="2712">
<path d="M1558.42 -668L-316 1001.75L611.637 2043.09L2486.06 373.346L1558.42 -668Z" fill="white"/>
</mask>
<g mask="url(#mask44_1017_14561)">
<path d="M1415.06 993.455L1478.75 1216.82L1234.12 947.323L1415.06 993.455Z" stroke="white" stroke-width="0.876001" stroke-miterlimit="10" stroke-linecap="round" stroke-linejoin="round"/>
</g>
<mask id="mask45_1017_14561" style="mask-type:luminance" maskUnits="userSpaceOnUse" x="-316" y="-668" width="2803" height="2712">
<path d="M1558.42 -668L-316 1001.75L611.637 2043.09L2486.06 373.346L1558.42 -668Z" fill="white"/>
</mask>
<g mask="url(#mask45_1017_14561)">
<path d="M728.547 889.627L805.469 947.413L680.632 946.968L728.547 889.627Z" stroke="white" stroke-width="0.876001" stroke-miterlimit="10" stroke-linecap="round" stroke-linejoin="round"/>
</g>
<mask id="mask46_1017_14561" style="mask-type:luminance" maskUnits="userSpaceOnUse" x="-316" y="-668" width="2803" height="2712">
<path d="M1558.42 -668L-316 1001.75L611.637 2043.09L2486.06 373.346L1558.42 -668Z" fill="white"/>
</mask>
<g mask="url(#mask46_1017_14561)">
<path d="M537.01 853.101L579.776 865.148L590.796 833.121L537.01 853.101Z" stroke="white" stroke-width="0.876001" stroke-miterlimit="10" stroke-linecap="round" stroke-linejoin="round"/>
</g>
<mask id="mask47_1017_14561" style="mask-type:luminance" maskUnits="userSpaceOnUse" x="-316" y="-668" width="2803" height="2712">
<path d="M1558.42 -668L-316 1001.75L611.637 2043.09L2486.06 373.346L1558.42 -668Z" fill="white"/>
</mask>
<g mask="url(#mask47_1017_14561)">
<path d="M452.976 575.397L613.084 661.781L590.794 833.121L452.976 575.397Z" stroke="white" stroke-width="0.876001" stroke-miterlimit="10" stroke-linecap="round" stroke-linejoin="round"/>
</g>
<mask id="mask48_1017_14561" style="mask-type:luminance" maskUnits="userSpaceOnUse" x="-316" y="-668" width="2803" height="2712">
<path d="M1558.42 -668L-316 1001.75L611.637 2043.09L2486.06 373.346L1558.42 -668Z" fill="white"/>
</mask>
<g mask="url(#mask48_1017_14561)">
<path d="M244.451 682.792L305.93 641.399L292.581 670.451L244.451 682.792Z" stroke="white" stroke-width="0.876001" stroke-miterlimit="10" stroke-linecap="round" stroke-linejoin="round"/>
</g>
<mask id="mask49_1017_14561" style="mask-type:luminance" maskUnits="userSpaceOnUse" x="-316" y="-668" width="2803" height="2712">
<path d="M1558.42 -668L-316 1001.75L611.637 2043.09L2486.06 373.346L1558.42 -668Z" fill="white"/>
</mask>
<g mask="url(#mask49_1017_14561)">
<path d="M280.893 845.213L319.699 924.117L383.404 872.927L280.893 845.213Z" stroke="white" stroke-width="0.876001" stroke-miterlimit="10" stroke-linecap="round" stroke-linejoin="round"/>
</g>
<mask id="mask50_1017_14561" style="mask-type:luminance" maskUnits="userSpaceOnUse" x="-316" y="-668" width="2803" height="2712">
<path d="M1558.42 -668L-316 1001.75L611.637 2043.09L2486.06 373.346L1558.42 -668Z" fill="white"/>
</mask>
<g mask="url(#mask50_1017_14561)">
<path d="M1255.28 763.532L1343.12 870.768L1234.12 947.323L1255.28 763.532Z" stroke="white" stroke-width="0.876001" stroke-miterlimit="10" stroke-linecap="round" stroke-linejoin="round"/>
</g>
<mask id="mask51_1017_14561" style="mask-type:luminance" maskUnits="userSpaceOnUse" x="-316" y="-668" width="2803" height="2712">
<path d="M1558.42 -668L-316 1001.75L611.637 2043.09L2486.06 373.346L1558.42 -668Z" fill="white"/>
</mask>
<g mask="url(#mask51_1017_14561)">
<path d="M1021.49 601.081L700 534.489L892.811 547.394L1021.49 601.081Z" stroke="white" stroke-width="0.876001" stroke-miterlimit="10" stroke-linecap="round" stroke-linejoin="round"/>
</g>
<mask id="mask52_1017_14561" style="mask-type:luminance" maskUnits="userSpaceOnUse" x="-316" y="-668" width="2803" height="2712">
<path d="M1558.42 -668L-316 1001.75L611.637 2043.09L2486.06 373.346L1558.42 -668Z" fill="white"/>
</mask>
<g mask="url(#mask52_1017_14561)">
<path d="M537.008 853.101L362.551 1108.09L312.884 996.057L537.008 853.101Z" stroke="white" stroke-width="0.876001" stroke-miterlimit="10" stroke-linecap="round" stroke-linejoin="round"/>
</g>
<mask id="mask53_1017_14561" style="mask-type:luminance" maskUnits="userSpaceOnUse" x="-316" y="-668" width="2803" height="2712">
<path d="M1558.42 -668L-316 1001.75L611.637 2043.09L2486.06 373.346L1558.42 -668Z" fill="white"/>
</mask>
<g mask="url(#mask53_1017_14561)">
<path d="M244.451 682.792L173.662 736.73L21.0401 934.23L244.451 682.792Z" stroke="white" stroke-width="0.876001" stroke-miterlimit="10" stroke-linecap="round" stroke-linejoin="round"/>
</g>
<mask id="mask54_1017_14561" style="mask-type:luminance" maskUnits="userSpaceOnUse" x="-316" y="-668" width="2803" height="2712">
<path d="M1558.42 -668L-316 1001.75L611.637 2043.09L2486.06 373.346L1558.42 -668Z" fill="white"/>
</mask>
<g mask="url(#mask54_1017_14561)">
<path d="M613.084 661.78L892.81 547.394L699.999 534.489L613.084 661.78Z" stroke="white" stroke-width="0.876001" stroke-miterlimit="10" stroke-linecap="round" stroke-linejoin="round"/>
</g>
<mask id="mask55_1017_14561" style="mask-type:luminance" maskUnits="userSpaceOnUse" x="-316" y="-668" width="2803" height="2712">
<path d="M1558.42 -668L-316 1001.75L611.637 2043.09L2486.06 373.346L1558.42 -668Z" fill="white"/>
</mask>
<g mask="url(#mask55_1017_14561)">
<path d="M811.827 987.508L728.548 889.627L805.469 947.413L811.827 987.508Z" stroke="white" stroke-width="0.876001" stroke-miterlimit="10" stroke-linecap="round" stroke-linejoin="round"/>
</g>
<mask id="mask56_1017_14561" style="mask-type:luminance" maskUnits="userSpaceOnUse" x="-316" y="-668" width="2803" height="2712">
<path d="M1558.42 -668L-316 1001.75L611.637 2043.09L2486.06 373.346L1558.42 -668Z" fill="white"/>
</mask>
<g mask="url(#mask56_1017_14561)">
<path d="M767.828 716.577L728.549 889.627L811.827 987.509L767.828 716.577Z" stroke="white" stroke-width="0.876001" stroke-miterlimit="10" stroke-linecap="round" stroke-linejoin="round"/>
</g>
</svg>
